<svg xmlns="http://www.w3.org/2000/svg" xmlns:xlink="http://www.w3.org/1999/xlink" viewBox="0 0 363.44 837.75">
    <defs>
        <style>
            .cls-1,
            .cls-10,
            .cls-11,
            .cls-12,
            .cls-13,
            .cls-14,
            .cls-15,
            .cls-16,
            .cls-17,
            .cls-2,
            .cls-3,
            .cls-4,
            .cls-5,
            .cls-6,
            .cls-7,
            .cls-8,
            .cls-9 {
                fill: #199332;
                stroke-width: 0.25px;
            }

            .cls-1,
            .cls-10,
            .cls-11,
            .cls-12,
            .cls-13,
            .cls-14,
            .cls-15,
            .cls-16,
            .cls-17,
            .cls-18,
            .cls-19,
            .cls-2,
            .cls-20,
            .cls-21,
            .cls-22,
            .cls-23,
            .cls-24,
            .cls-25,
            .cls-26,
            .cls-27,
            .cls-28,
            .cls-29,
            .cls-3,
            .cls-30,
            .cls-31,
            .cls-32,
            .cls-33,
            .cls-34,
            .cls-35,
            .cls-36,
            .cls-37,
            .cls-38,
            .cls-39,
            .cls-4,
            .cls-40,
            .cls-41,
            .cls-42,
            .cls-43,
            .cls-44,
            .cls-45,
            .cls-46,
            .cls-47,
            .cls-48,
            .cls-49,
            .cls-5,
            .cls-50,
            .cls-51,
            .cls-52,
            .cls-53,
            .cls-54,
            .cls-55,
            .cls-56,
            .cls-57,
            .cls-6,
            .cls-7,
            .cls-8,
            .cls-9 {
                stroke-miterlimit: 10;
            }

            .cls-1 {
                stroke: url(#Dégradé_sans_nom_32);
            }

            .cls-2 {
                stroke: url(#Dégradé_sans_nom_32-2);
            }

            .cls-3 {
                stroke: url(#Dégradé_sans_nom_32-3);
            }

            .cls-4 {
                stroke: url(#Dégradé_sans_nom_32-4);
            }

            .cls-5 {
                stroke: url(#Dégradé_sans_nom_32-5);
            }

            .cls-6 {
                stroke: url(#Dégradé_sans_nom_32-6);
            }

            .cls-7 {
                stroke: url(#Dégradé_sans_nom_32-7);
            }

            .cls-8 {
                stroke: url(#Dégradé_sans_nom_32-8);
            }

            .cls-9 {
                stroke: url(#Dégradé_sans_nom_32-9);
            }

            .cls-10 {
                stroke: url(#Dégradé_sans_nom_32-10);
            }

            .cls-11 {
                stroke: url(#Dégradé_sans_nom_32-11);
            }

            .cls-12 {
                stroke: url(#Dégradé_sans_nom_32-12);
            }

            .cls-13 {
                stroke: url(#Dégradé_sans_nom_32-13);
            }

            .cls-14 {
                stroke: url(#Dégradé_sans_nom_32-14);
            }

            .cls-15 {
                stroke: url(#Dégradé_sans_nom_32-15);
            }

            .cls-16 {
                stroke: url(#Dégradé_sans_nom_32-16);
            }

            .cls-17 {
                stroke: url(#Dégradé_sans_nom_32-17);
            }

            .cls-18,
            .cls-19,
            .cls-23,
            .cls-26,
            .cls-27,
            .cls-31,
            .cls-34,
            .cls-35,
            .cls-39,
            .cls-42,
            .cls-43,
            .cls-47,
            .cls-50,
            .cls-51,
            .cls-55 {
                fill: #fff;
            }

            .cls-18 {
                stroke: url(#Dégradé_sans_nom_32-18);
            }

            .cls-19 {
                stroke: url(#Dégradé_sans_nom_32-19);
            }

            .cls-20 {
                stroke: url(#Dégradé_sans_nom_32-20);
            }

            .cls-21,
            .cls-29,
            .cls-37,
            .cls-45,
            .cls-53 {
                fill: #137936;
            }

            .cls-21 {
                stroke: url(#Dégradé_sans_nom_32-21);
            }

            .cls-22,
            .cls-24,
            .cls-30,
            .cls-32,
            .cls-38,
            .cls-40,
            .cls-46,
            .cls-48,
            .cls-54,
            .cls-56 {
                fill: #df6565;
            }

            .cls-22 {
                stroke: url(#Dégradé_sans_nom_32-22);
            }

            .cls-23 {
                stroke: url(#Dégradé_sans_nom_32-23);
            }

            .cls-24 {
                stroke: url(#Dégradé_sans_nom_32-24);
            }

            .cls-25 {
                fill: url(#Dégradé_sans_nom_29);
                stroke: url(#Dégradé_sans_nom_32-25);
            }

            .cls-26 {
                stroke: url(#Dégradé_sans_nom_32-26);
            }

            .cls-27 {
                stroke: url(#Dégradé_sans_nom_32-27);
            }

            .cls-28 {
                stroke: url(#Dégradé_sans_nom_32-28);
            }

            .cls-29 {
                stroke: url(#Dégradé_sans_nom_32-29);
            }

            .cls-30 {
                stroke: url(#Dégradé_sans_nom_32-30);
            }

            .cls-31 {
                stroke: url(#Dégradé_sans_nom_32-31);
            }

            .cls-32 {
                stroke: url(#Dégradé_sans_nom_32-32);
            }

            .cls-33 {
                fill: url(#Dégradé_sans_nom_29-2);
                stroke: url(#Dégradé_sans_nom_32-33);
            }

            .cls-34 {
                stroke: url(#Dégradé_sans_nom_32-34);
            }

            .cls-35 {
                stroke: url(#Dégradé_sans_nom_32-35);
            }

            .cls-36 {
                stroke: url(#Dégradé_sans_nom_32-36);
            }

            .cls-37 {
                stroke: url(#Dégradé_sans_nom_32-37);
            }

            .cls-38 {
                stroke: url(#Dégradé_sans_nom_32-38);
            }

            .cls-39 {
                stroke: url(#Dégradé_sans_nom_32-39);
            }

            .cls-40 {
                stroke: url(#Dégradé_sans_nom_32-40);
            }

            .cls-41 {
                fill: url(#Dégradé_sans_nom_29-3);
                stroke: url(#Dégradé_sans_nom_32-41);
            }

            .cls-42 {
                stroke: url(#Dégradé_sans_nom_32-42);
            }

            .cls-43 {
                stroke: url(#Dégradé_sans_nom_32-43);
            }

            .cls-44 {
                stroke: url(#Dégradé_sans_nom_32-44);
            }

            .cls-45 {
                stroke: url(#Dégradé_sans_nom_32-45);
            }

            .cls-46 {
                stroke: url(#Dégradé_sans_nom_32-46);
            }

            .cls-47 {
                stroke: url(#Dégradé_sans_nom_32-47);
            }

            .cls-48 {
                stroke: url(#Dégradé_sans_nom_32-48);
            }

            .cls-49 {
                fill: url(#Dégradé_sans_nom_29-4);
                stroke: url(#Dégradé_sans_nom_32-49);
            }

            .cls-50 {
                stroke: url(#Dégradé_sans_nom_32-50);
            }

            .cls-51 {
                stroke: url(#Dégradé_sans_nom_32-51);
            }

            .cls-52 {
                stroke: url(#Dégradé_sans_nom_32-52);
            }

            .cls-53 {
                stroke: url(#Dégradé_sans_nom_32-53);
            }

            .cls-54 {
                stroke: url(#Dégradé_sans_nom_32-54);
            }

            .cls-55 {
                stroke: url(#Dégradé_sans_nom_32-55);
            }

            .cls-56 {
                stroke: url(#Dégradé_sans_nom_32-56);
            }

            .cls-57 {
                fill: url(#Dégradé_sans_nom_29-5);
                stroke: url(#Dégradé_sans_nom_32-57);
            }

            .cls-58 {
                fill: url(#Dégradé_sans_nom_32-58);
            }

            .cls-59 {
                fill: url(#Dégradé_sans_nom_32-59);
            }

            .cls-60 {
                fill: url(#Dégradé_sans_nom_32-60);
            }

            .cls-61 {
                fill: url(#Dégradé_sans_nom_32-61);
            }

            .cls-62 {
                fill: url(#Dégradé_sans_nom_32-62);
            }

            .cls-63 {
                fill: url(#Dégradé_sans_nom_32-63);
            }

            .cls-64 {
                fill: url(#Dégradé_sans_nom_32-64);
            }

            .cls-65 {
                fill: url(#Dégradé_sans_nom_32-65);
            }

            .cls-66 {
                fill: url(#Dégradé_sans_nom_32-66);
            }
        </style>
        <linearGradient id="Dégradé_sans_nom_32" x1="232.81" y1="296.72" x2="267.42" y2="296.72"
            gradientUnits="userSpaceOnUse">
            <stop offset="0" stop-color="#ddbf5e" />
            <stop offset="0.05" stop-color="#daba58" />
            <stop offset="0.2" stop-color="#d3ad4a" />
            <stop offset="0.33" stop-color="#d1a845" />
            <stop offset="0.37" stop-color="#e1c669" />
            <stop offset="0.41" stop-color="#ebdf86" />
            <stop offset="0.45" stop-color="#f2f09b" />
            <stop offset="0.48" stop-color="#f5f6a8" />
            <stop offset="0.52" stop-color="#f6f8ab" />
            <stop offset="0.54" stop-color="#f4f5a5" />
            <stop offset="0.57" stop-color="#efe992" />
            <stop offset="0.61" stop-color="#e5ce72" />
            <stop offset="0.66" stop-color="#d2aa47" />
            <stop offset="0.66" stop-color="#d1a845" />
            <stop offset="0.7" stop-color="#ba913d" />
            <stop offset="0.77" stop-color="#987032" />
            <stop offset="0.81" stop-color="#8c632e" />
            <stop offset="0.89" stop-color="#b49146" />
            <stop offset="0.96" stop-color="#d2b257" />
            <stop offset="1" stop-color="#ddbf5e" />
        </linearGradient>
        <linearGradient id="Dégradé_sans_nom_32-2" x1="182.56" y1="206.43" x2="245.2" y2="206.43"
            xlink:href="#Dégradé_sans_nom_32" />
        <linearGradient id="Dégradé_sans_nom_32-3" x1="169.5" y1="224.66" x2="199.81" y2="224.66"
            xlink:href="#Dégradé_sans_nom_32" />
        <linearGradient id="Dégradé_sans_nom_32-4" x1="225.22" y1="232.53" x2="267.75" y2="232.53"
            xlink:href="#Dégradé_sans_nom_32" />
        <linearGradient id="Dégradé_sans_nom_32-5" x1="194.29" y1="257.6" x2="246" y2="257.6"
            xlink:href="#Dégradé_sans_nom_32" />
        <linearGradient id="Dégradé_sans_nom_32-6" x1="162.67" y1="255.64" x2="201.35" y2="255.64"
            xlink:href="#Dégradé_sans_nom_32" />
        <linearGradient id="Dégradé_sans_nom_32-7" x1="165.4" y1="269.08" x2="215.33" y2="269.08"
            xlink:href="#Dégradé_sans_nom_32" />
        <linearGradient id="Dégradé_sans_nom_32-8" x1="162.08" y1="304.2" x2="241.88" y2="304.2"
            xlink:href="#Dégradé_sans_nom_32" />
        <linearGradient id="Dégradé_sans_nom_32-9" x1="181.05" y1="334.86" x2="260.21" y2="334.86"
            xlink:href="#Dégradé_sans_nom_32" />
        <linearGradient id="Dégradé_sans_nom_32-10" x1="182.25" y1="372.78" x2="258.41" y2="372.78"
            xlink:href="#Dégradé_sans_nom_32" />
        <linearGradient id="Dégradé_sans_nom_32-11" x1="148.3" y1="390.63" x2="232.42" y2="390.63"
            xlink:href="#Dégradé_sans_nom_32" />
        <linearGradient id="Dégradé_sans_nom_32-12" x1="74.03" y1="383.49" x2="90.35" y2="383.49"
            xlink:href="#Dégradé_sans_nom_32" />
        <linearGradient id="Dégradé_sans_nom_32-13" x1="59.97" y1="395.9" x2="83.91" y2="395.9"
            xlink:href="#Dégradé_sans_nom_32" />
        <linearGradient id="Dégradé_sans_nom_32-14" x1="48.63" y1="410" x2="67.88" y2="410"
            xlink:href="#Dégradé_sans_nom_32" />
        <linearGradient id="Dégradé_sans_nom_32-15" x1="35.71" y1="427.74" x2="60.11" y2="427.74"
            xlink:href="#Dégradé_sans_nom_32" />
        <linearGradient id="Dégradé_sans_nom_32-16" x1="35.4" y1="437.73" x2="51.47" y2="437.73"
            xlink:href="#Dégradé_sans_nom_32" />
        <linearGradient id="Dégradé_sans_nom_32-17" x1="42.12" y1="396.15" x2="329.74" y2="396.15"
            xlink:href="#Dégradé_sans_nom_32" />
        <linearGradient id="Dégradé_sans_nom_32-18" x1="147.48" y1="689.67" x2="172.01" y2="689.67"
            xlink:href="#Dégradé_sans_nom_32" />
        <linearGradient id="Dégradé_sans_nom_32-19" x1="156.89" y1="653.1" x2="162.6" y2="653.1"
            xlink:href="#Dégradé_sans_nom_32" />
        <linearGradient id="Dégradé_sans_nom_32-20" x1="161.47" y1="633.39" x2="205.86" y2="633.39"
            xlink:href="#Dégradé_sans_nom_32" />
        <linearGradient id="Dégradé_sans_nom_32-21" x1="161.47" y1="654.85" x2="205.86" y2="654.85"
            xlink:href="#Dégradé_sans_nom_32" />
        <linearGradient id="Dégradé_sans_nom_32-22" x1="161.47" y1="642.21" x2="184.18" y2="642.21"
            xlink:href="#Dégradé_sans_nom_32" />
        <linearGradient id="Dégradé_sans_nom_32-23" x1="172.9" y1="642.53" x2="205.86" y2="642.53"
            xlink:href="#Dégradé_sans_nom_32" />
        <linearGradient id="Dégradé_sans_nom_32-24" x1="161.6" y1="642.53" x2="184.18" y2="642.53"
            xlink:href="#Dégradé_sans_nom_32" />
        <linearGradient id="Dégradé_sans_nom_29" x1="161.84" y1="642.28" x2="183.34" y2="642.28"
            gradientUnits="userSpaceOnUse">
            <stop offset="0" stop-color="#cf1609" />
            <stop offset="1" stop-color="#cf1609" />
        </linearGradient>
        <linearGradient id="Dégradé_sans_nom_32-25" x1="161.34" y1="642.26" x2="184.18" y2="642.26"
            xlink:href="#Dégradé_sans_nom_32" />
        <linearGradient id="Dégradé_sans_nom_32-26" x1="53.01" y1="423" x2="77.54" y2="423"
            xlink:href="#Dégradé_sans_nom_32" />
        <linearGradient id="Dégradé_sans_nom_32-27" x1="62.42" y1="386.43" x2="68.13" y2="386.43"
            xlink:href="#Dégradé_sans_nom_32" />
        <linearGradient id="Dégradé_sans_nom_32-28" x1="67.01" y1="366.72" x2="111.39" y2="366.72"
            xlink:href="#Dégradé_sans_nom_32" />
        <linearGradient id="Dégradé_sans_nom_32-29" x1="67.01" y1="388.18" x2="111.39" y2="388.18"
            xlink:href="#Dégradé_sans_nom_32" />
        <linearGradient id="Dégradé_sans_nom_32-30" x1="67.01" y1="375.55" x2="89.71" y2="375.55"
            xlink:href="#Dégradé_sans_nom_32" />
        <linearGradient id="Dégradé_sans_nom_32-31" x1="78.43" y1="375.86" x2="111.39" y2="375.86"
            xlink:href="#Dégradé_sans_nom_32" />
        <linearGradient id="Dégradé_sans_nom_32-32" x1="67.13" y1="375.86" x2="89.71" y2="375.86"
            xlink:href="#Dégradé_sans_nom_32" />
        <linearGradient id="Dégradé_sans_nom_29-2" x1="67.38" y1="375.61" x2="88.87" y2="375.61"
            xlink:href="#Dégradé_sans_nom_29" />
        <linearGradient id="Dégradé_sans_nom_32-33" x1="66.87" y1="375.59" x2="89.71" y2="375.59"
            xlink:href="#Dégradé_sans_nom_32" />
        <linearGradient id="Dégradé_sans_nom_32-34" x1="231.46" y1="383.95" x2="255.99" y2="383.95"
            xlink:href="#Dégradé_sans_nom_32" />
        <linearGradient id="Dégradé_sans_nom_32-35" x1="240.87" y1="347.38" x2="246.57" y2="347.38"
            xlink:href="#Dégradé_sans_nom_32" />
        <linearGradient id="Dégradé_sans_nom_32-36" x1="245.45" y1="327.67" x2="289.84" y2="327.67"
            xlink:href="#Dégradé_sans_nom_32" />
        <linearGradient id="Dégradé_sans_nom_32-37" x1="245.45" y1="349.13" x2="289.84" y2="349.13"
            xlink:href="#Dégradé_sans_nom_32" />
        <linearGradient id="Dégradé_sans_nom_32-38" x1="245.45" y1="336.49" x2="268.15" y2="336.49"
            xlink:href="#Dégradé_sans_nom_32" />
        <linearGradient id="Dégradé_sans_nom_32-39" x1="256.87" y1="336.81" x2="289.84" y2="336.81"
            xlink:href="#Dégradé_sans_nom_32" />
        <linearGradient id="Dégradé_sans_nom_32-40" x1="245.57" y1="336.81" x2="268.15" y2="336.81"
            xlink:href="#Dégradé_sans_nom_32" />
        <linearGradient id="Dégradé_sans_nom_29-3" x1="245.82" y1="336.56" x2="267.32" y2="336.56"
            xlink:href="#Dégradé_sans_nom_29" />
        <linearGradient id="Dégradé_sans_nom_32-41" x1="245.31" y1="336.54" x2="268.15" y2="336.54"
            xlink:href="#Dégradé_sans_nom_32" />
        <linearGradient id="Dégradé_sans_nom_32-42" x1="184.65" y1="170.66" x2="209.18" y2="170.66"
            xlink:href="#Dégradé_sans_nom_32" />
        <linearGradient id="Dégradé_sans_nom_32-43" x1="194.06" y1="134.09" x2="199.77" y2="134.09"
            xlink:href="#Dégradé_sans_nom_32" />
        <linearGradient id="Dégradé_sans_nom_32-44" x1="198.64" y1="114.39" x2="243.03" y2="114.39"
            xlink:href="#Dégradé_sans_nom_32" />
        <linearGradient id="Dégradé_sans_nom_32-45" x1="198.64" y1="135.85" x2="243.03" y2="135.85"
            xlink:href="#Dégradé_sans_nom_32" />
        <linearGradient id="Dégradé_sans_nom_32-46" x1="198.64" y1="123.21" x2="221.35" y2="123.21"
            xlink:href="#Dégradé_sans_nom_32" />
        <linearGradient id="Dégradé_sans_nom_32-47" x1="210.07" y1="123.53" x2="243.03" y2="123.53"
            xlink:href="#Dégradé_sans_nom_32" />
        <linearGradient id="Dégradé_sans_nom_32-48" x1="198.77" y1="123.53" x2="221.35" y2="123.53"
            xlink:href="#Dégradé_sans_nom_32" />
        <linearGradient id="Dégradé_sans_nom_29-4" x1="199.01" y1="123.28" x2="220.51" y2="123.28"
            xlink:href="#Dégradé_sans_nom_29" />
        <linearGradient id="Dégradé_sans_nom_32-49" x1="198.5" y1="123.26" x2="221.35" y2="123.26"
            xlink:href="#Dégradé_sans_nom_32" />
        <linearGradient id="Dégradé_sans_nom_32-50" x1="140.48" y1="502.12" x2="165.01" y2="502.12"
            xlink:href="#Dégradé_sans_nom_32" />
        <linearGradient id="Dégradé_sans_nom_32-51" x1="149.89" y1="465.55" x2="155.6" y2="465.55"
            xlink:href="#Dégradé_sans_nom_32" />
        <linearGradient id="Dégradé_sans_nom_32-52" x1="154.48" y1="445.84" x2="198.86" y2="445.84"
            xlink:href="#Dégradé_sans_nom_32" />
        <linearGradient id="Dégradé_sans_nom_32-53" x1="154.48" y1="467.3" x2="198.86" y2="467.3"
            xlink:href="#Dégradé_sans_nom_32" />
        <linearGradient id="Dégradé_sans_nom_32-54" x1="154.48" y1="454.66" x2="177.18" y2="454.66"
            xlink:href="#Dégradé_sans_nom_32" />
        <linearGradient id="Dégradé_sans_nom_32-55" x1="165.9" y1="454.98" x2="198.86" y2="454.98"
            xlink:href="#Dégradé_sans_nom_32" />
        <linearGradient id="Dégradé_sans_nom_32-56" x1="154.6" y1="454.98" x2="177.18" y2="454.98"
            xlink:href="#Dégradé_sans_nom_32" />
        <linearGradient id="Dégradé_sans_nom_29-5" x1="154.85" y1="454.73" x2="176.34" y2="454.73"
            xlink:href="#Dégradé_sans_nom_29" />
        <linearGradient id="Dégradé_sans_nom_32-57" x1="154.34" y1="454.71" x2="177.18" y2="454.71"
            xlink:href="#Dégradé_sans_nom_32" />
        <linearGradient id="Dégradé_sans_nom_32-58" x1="0" y1="820.12" x2="22.35" y2="820.12"
            xlink:href="#Dégradé_sans_nom_32" />
        <linearGradient id="Dégradé_sans_nom_32-59" x1="36.9" y1="820.12" x2="66.43" y2="820.12"
            xlink:href="#Dégradé_sans_nom_32" />
        <linearGradient id="Dégradé_sans_nom_32-60" x1="85.89" y1="820.12" x2="108.63" y2="820.12"
            xlink:href="#Dégradé_sans_nom_32" />
        <linearGradient id="Dégradé_sans_nom_32-61" x1="128.57" y1="820.12" x2="152.99" y2="820.12"
            xlink:href="#Dégradé_sans_nom_32" />
        <linearGradient id="Dégradé_sans_nom_32-62" x1="171.91" y1="820.15" x2="197.07" y2="820.15"
            xlink:href="#Dégradé_sans_nom_32" />
        <linearGradient id="Dégradé_sans_nom_32-63" x1="213" y1="820.12" x2="240.77" y2="820.12"
            xlink:href="#Dégradé_sans_nom_32" />
        <linearGradient id="Dégradé_sans_nom_32-64" x1="260.26" y1="820.12" x2="264.83" y2="820.12"
            xlink:href="#Dégradé_sans_nom_32" />
        <linearGradient id="Dégradé_sans_nom_32-65" x1="288.07" y1="820.12" x2="315.79" y2="820.12"
            xlink:href="#Dégradé_sans_nom_32" />
        <linearGradient id="Dégradé_sans_nom_32-66" x1="339.02" y1="820.12" x2="363.44" y2="820.12"
            xlink:href="#Dégradé_sans_nom_32" />
    </defs>
    <title>Fichier 1</title>
    <g id="Calque_2" data-name="Calque 2">
        <g id="Calque_1-2" data-name="Calque 1">
            <path id="PS-JRH" class="cls-1"
                d="M259.53,277l-.49,1,.37,8.72,1.9,2.18.28,1.38L260,292.57l2.88,6.34-1.09,7.22-3.11,3,1.68,8.52,3,1.9-1.68,3.33,1.79,2.87-1.35,3.83,2.12,11.79-4.17,7.47h0l-6.64-6-.93-1.49-.38-2.73-2.38-1.5-.65-.19-1.7-.07-2.54.32-1.27.36-2.45,1.07-1.2.16-1.17-.33-2.89-1.72-.58-.75-.11-.49.33-.87.65-.81.07-.6-.43-.95-.6-.66-1.32-.39-.48-.49-.23-1-.21-4.25h0l3.2.64,2.29.16.84-.77.33-.79.16-1,0-1.05-.71-2.89.4-3.5.31-.79,1.26-1.89.28-.8,0-.51-.06-.49-1.44-2.66-.2-.7-.06-.51.26-2.55-.14-1L239,303l-.16-.61.14-.49,1.31-1.09,1.18-2.45.25-.8,0-.91-.14-.42-.31-.3-2.23-.8-2.77-2.52-.18-.56,0-.37.34-.31.44-.09,1.81.07,1.17-.47.2-.42,0-.51-.36-.68-.57-.65-.39-.25h.09l-.39-.64-.53-1.63-.16-.78.08-2.47-.08-1.19-.26-.88-1.05-2.22,0-.69.29-1.15.7-1.35.65-.52,1.28-.34,2-.13,2.4-.59,1-.52.3-.81-.11-.84-1.15-2-.33-1.15.65-3.44,0-1.05-.37-1.58-.1-1.23.21-1.37.73-2.26-.07-1.35-.31-.69-.33-.36-.6-.21h-.9l-1.32.42h-.47l-.22-.11-.21-.32v-.6l.5-.87,1.56-1.35,1.22-1.63,2.46-5.92h0l3.42,1.78,1.11.93,2.09,3.3,1.28,4,.73,1,.56.35.5.05.55-.26,2.19-2,1-.69.44-.14,4.36-.1,3.08-.25h0l-1.49,3-1.11,5-.49,5.4-.66,2.26L261,271.52l-.56,3.59Z" />
            <path id="PS-JEN" class="cls-2"
                d="M245,209.47l-.74.45-1.32,2.27-.65.38-1.43.47-.71.8-1.52.88-1.09,1.74-.38.26-.61.1-.41-.08-1.32-.77-.65-.09-.83.42-1.05,1.13-.69.45-2.29.32-.58.23-.24.27-.21.57-.14,1.88-.84,2.27.07,1.11.31,1.63,0,1.3-.38.92-1.12,1.76-.76,2h0l-2.71-1.59-1.34-1.12-1.92-2-.34-.19-.47.09-.83,1.44-.61.61-.77.34-1.06.11-2.16-.08-2.29-.65-1.84.09-1.6-.89-.9-.18-1.89,0-2.21.6-1.24.13-.93-.28-.42-.28-.32-.39-.18-.58h0l.35-2.68-.16-1-.22-.38-1.65-.72-1.77-1-1.69-.63-1.66-1.88-.6-.24-1.58-.29-.34-.36,0-.26.46-1.76v-1.66l.38-1.28-.16-2.23.09-1.65,1-2.42v-.44l-.24-.56-.33-.34-.59-.23-.94-.08-1.44.09-1.2.41L185.2,207l-1,.38-.59-.11-.75-.81-.2-.57.07-.47L183,205l.39-.29,1.86-.64.86-.65.51-1,.11-1.08-.14-1.08-.23-.53-.75-.85-1-.42-1.11-.12-.5.07h0l1-1.93,1.31-1,6.93-2.62,4.3-2.19,3.39-2.47,2.07-2,.6-1.24,3.16-3.58.92-.46,1.67-.25,2.38,1.3,3.08,3.19,2.64,1.94,2.71,1.34,1.37.36h2l8.43-1.55,3.31.06,1.46.36,2.79,2.08,2.8,4.74.54,4.36-.21,4.06,1,2.94,1.22,1.58-.05,1Z" />
            <path id="PS-TKM" class="cls-3"
                d="M198.1,241.7l-2.8.54-2.86.9-1.74.24-.9.82-1,1.31L187.36,247l-.14.82-.35.82-2.23.73-1,1.4-.7.24-1.6-.08-3.69-2.46-1.19-1.72-.76-.65-1.4-2.13-4.59-6h0l.36-.26.57-1.5-.81-5.81.19-5.47,1.83-3.44L173,220l4.48-2,1.2-1.17.71-5.15,1.5-4.16.81-5.21.76-2.83.58-1.07h0l.5-.07,1.11.12,1,.42.75.85.23.53.14,1.08-.11,1.08-.51,1-.86.65-1.86.64L183,205l-.24.41-.07.47.2.57.75.81.59.11,1-.38,1.81-1.23,1.2-.41,1.44-.09.94.08.59.23.33.34.24.56v.44l-1,2.42-.09,1.65.16,2.23-.38,1.28v1.66L190,217.9l0,.26.34.36,1.58.29.6.24,1.66,1.88,1.69.63,1.77,1,1.65.72.22.38.16,1-.35,2.68h0l-1.8-.64-1.24-.77-1.83-.68-.05,2,.3,1.56.46.6,2.16,1.32.38.38.49,1,.13,1.62-.15,1-.35.61-1.44.78-.34.59-.1,1,.22.86,1.17,1.2Z" />
            <path id="PS-TBS" class="cls-4"
                d="M264.91,213.42l-.33,3.65,1.27,1.58.42,1.19-.49,3-.55,1.42-.12,1.63,1.34,3.63-.84,2.35,0,1.45,1.18,2.93-.62,4.48.67,2.91.17,3.24.47,1.61.18,2.32-.42,1.72h0l-3.08.25-4.36.1-.44.14-1,.69-2.19,2-.55.26-.5-.05-.56-.35-.73-1-1.28-4-2.09-3.3-1.11-.93-3.42-1.78h0l-.49-1.39-.65-2.57-.73-2-.52-1.08-.57-.61-1.13-.33-1.67,0-2.17,1-2.32.43-2.07.77-1.16,0-.63-.47-.78-1.46-.63-.8-.62-.42-2.1-1-1.45-1.37-.81-1h0l.76-2,1.12-1.76.38-.92,0-1.3-.31-1.63-.07-1.11.84-2.27.14-1.88.21-.57.24-.27.58-.23,2.29-.32.69-.45,1.05-1.13.83-.42.65.09,1.32.77.41.08.61-.1.38-.26,1.09-1.74,1.52-.88.71-.8,1.43-.47.65-.38,1.32-2.27.74-.45h0l2.18.35,2.58-.75,3.92.17,2.16.66,5.08,2.37Z" />
            <path id="PS-NBS" class="cls-5"
                d="M202.35,281l2.86-3.55,1.6-1.49,3.93-2.11,2.57-.38.69-.28.41-.33.49-.75.26-.84,0-1.6-.12-.5-.63-1-1.19-.92-.93-.36-1.83-.32-1.62-.69-.9-.14-.92.07-.43.14-1.32.79-.71.18-1.36-.11-1.4-.57-.66-.56-.64-.86-.54-1.14L199,260.68l-.37-.57-.67-.55h0l.35-1.3,1.32-2.27.83-2.32.71-4,.1-1.31-.15-2L200,243.45l-.72-.89-1.13-.86h0l-.76-1.91-1.17-1.2-.22-.86.1-1,.34-.59,1.44-.78.35-.61.15-1-.13-1.62-.49-1-.38-.38-2.16-1.32-.46-.6-.3-1.56.05-2,1.83.68,1.24.77,1.8.64h0l.18.58.32.39.42.28.93.28,1.24-.13,2.21-.6,1.89,0,.9.18,1.6.89,1.84-.09,2.29.65,2.16.08,1.06-.11.77-.34.61-.61.83-1.44.47-.09.34.19,1.92,2,1.34,1.12,2.71,1.59h0l.81,1,1.45,1.37,2.1,1,.62.42.63.8.78,1.46.63.47,1.16,0,2.07-.77,2.32-.43,2.17-1,1.67,0,1.13.33.57.61.52,1.08.73,2,.65,2.57.49,1.39h0l-2.46,5.92-1.22,1.63-1.56,1.35-.5.87v.6l.21.32.22.11H241l1.32-.42h.9l.6.21.33.36.31.69.07,1.35-.73,2.26-.21,1.37.1,1.23.37,1.58,0,1.05-.65,3.44.33,1.15,1.15,2,.11.84-.3.81-1,.52-2.4.59-2,.13-1.28.34-.65.52-.7,1.35-.29,1.15,0,.69,1.05,2.22.26.88.08,1.19-.08,2.47.16.78.53,1.63.39.64h-1.12l-2-.46-.9.14-1.84,1.74-.43.18-.47-.07-1.07-.87-1-1.35-.23-.57L229.6,285l-.32-.69-.24-.25-1.26-.7-5.16-1.81-1.05-.05-1.52.43-.74,0-.71-.39-1.11-.89-.55-.17-1.7.15-1.69-.06-2.15.13-.61-.28-1.19-1.14-.56-.16-3.61,1.65-1.14.2Z" />
            <path id="PS-QQA" class="cls-6"
                d="M197.91,259.56l-3.08.37-1,0-1.28-.21-1.89-.46L187.9,258l-1.87-.51-1.81-.76-.39-.09-.52.07-.49.37-.18.3-.54,2.44-.24.56-2.16,3.75-.49,1.39-.46.61L176.27,268l-1,.57-.74.27-2.61.45-3.4,1.45-.87.76-1.11,1.33-.95.46h0l.1-.81,1.4-2.65.55-2.12-.21-2.6-1.31-5.78-.93-1.95-2.35-3.52-.08-2.35.3-2.37,3.11-7.05,2.37-3.43,1.1-.78h0l4.59,6,1.4,2.13.76.65,1.19,1.72,3.69,2.46,1.6.08.7-.24,1-1.4,2.23-.73.35-.82.14-.82,1.46-1.48,1-1.31.9-.82,1.74-.24,2.86-.9,2.8-.54h0l1.13.86.72.89,1.12,2.91.15,2-.1,1.31-.71,4-.83,2.32-1.32,2.27Z" />
            <path id="PS-SLT" class="cls-7"
                d="M202.35,281l-1.33-.68-1.73-1.21-.94-.44-1.22-.15-1.91.44-.48,0L193,278l-1.62-.59-1.18.07-.77.35-.57.45-.92,1.29-.33.18-2.22.34-1.45.59-1.13.69-1.25.22-.86,0-1.66-.28-2.75-.75-2.55-.22-1.3-.61-.94-1.32L171,278l-.82-.14h-2l-.24-.45-1.8-1.92-.54-1.35.1-.8h0l.95-.46,1.11-1.33.87-.76,3.4-1.45,2.61-.45.74-.27,1-.57,2.48-1.93.46-.61.49-1.39,2.16-3.75.24-.56.54-2.44.18-.3.49-.37.52-.07.39.09,1.81.76,1.87.51,2.74,1.25,1.89.46,1.28.21,1,0,3.08-.37h0l.67.55.37.57,1.05,2.95.54,1.14.64.86.66.56,1.4.57,1.36.11.71-.18,1.32-.79.43-.14.92-.07.9.14,1.62.69,1.83.32.93.36,1.19.92.63,1,.12.5,0,1.6-.26.84-.49.75-.41.33-.69.28-2.57.38L206.81,276l-1.6,1.49Z" />
            <path id="PS-RBH" class="cls-8"
                d="M232.94,325.43l-.77-.23-.48,0-1.93.52-.44,0-.55-.24-.92-1.95-1-1-.7-1.73-.26-.36-.55-.26-1.6-.19-1.36-.43L221,317.73l-.56-.57-.44-.27-1.82-.36-1.57-.51h-.88l-.8.35-.92,1.16-.3.11-.55-.23-.93-1.07-.89-.39-3.11-.21-1.47.42-2.2-.74-1.17.28-1.14.84-.58,1.1.05,1.4-.1.6-.3.29-.59.15-3.11-.08-1.65-.81-4.45.1-1.91-.08-.76-.21-2.24-1-.73,0-.46.26L185,319l-.29,2.15-.35.94-1.89,1.67-.71.77h0L179.37,326l-3.24,3.52-4.39,1.57-4.76-.68-3.33-1.43-1.44-5.41,2.12-3.14,8.61-1.54,1.52-4.72-.83-3.24-3.94-3.14-2.64-3.56-.42-4.58,2.36-5-.75-2L169,292l-.33-1.09,0-1.36,1.38-3,.4-3-.57-2.33-1.74-3.32h2l.82.14.5.35.94,1.32,1.3.61,2.55.22,2.75.75,1.66.28.86,0,1.25-.22,1.13-.69,1.45-.59,2.22-.34.33-.18.92-1.29.57-.45.77-.35,1.18-.07L193,278l1.79,1,.48,0,1.91-.44,1.22.15.94.44,1.73,1.21,1.33.68h0l1.94,0,1.14-.2L209,279.1l.56.16,1.19,1.14.61.28,2.15-.13,1.69.06,1.7-.15.55.17,1.11.89.71.39.74,0,1.52-.43,1.05.05,5.16,1.81,1.26.7.24.25.32.69.35,2.09.23.57,1,1.35,1.07.87.47.07.43-.18,1.84-1.74.9-.14,2,.46h1l.39.25.57.65.36.68,0,.51-.2.42-1.17.47-1.81-.07-.44.09-.34.31,0,.37.18.56,2.77,2.52,2.23.8.31.3.14.42,0,.91-.25.8-1.18,2.45L239,301.9l-.14.49.16.61.65,1.33.14,1-.26,2.55.06.51.2.7,1.44,2.66.06.49,0,.51-.28.8-1.26,1.89-.31.79-.4,3.5.71,2.89,0,1.05-.16,1-.33.79-.84.77-2.29-.16Z" />
            <path id="PS-JEM" class="cls-9"
                d="M260.05,348.83l-.2.36-1.59,5h0l-6.89-7-.77-.57-.76-.37-2.18-.67-.74-.07-1.73.48-1.38,0-1.56-.36-3-.26-2.27-.68-.41,0-.7.17-3,1.27-.85.2-1.66,0-1.37-.47-1.18-.16-1.91.57-1.87,1.28-.63.22-2.86.49-1.49-.22-.88,0-3.49,1.36-1.68.13-1.1-.19-.51-.24-5.23-3.59h0l1.8-2.81.51-7.3-3.14-3.28-8,0-7.45-3-3.46-1.66-3.8-3.51-.93.55h0l.71-.77,1.89-1.67.35-.94L185,319l.48-.79.46-.26.73,0,2.24,1,.76.21,1.91.08,4.45-.1,1.65.81,3.11.08.59-.15.3-.29.1-.6-.05-1.4.58-1.1,1.14-.84,1.17-.28,2.2.74,1.47-.42,3.11.21.89.39.93,1.07.55.23.3-.11.92-1.16.8-.35h.88l1.57.51,1.82.36.44.27.56.57,1.37,1.83,1.36.43,1.6.19.55.26.26.36.7,1.73,1,1,.92,1.95.55.24.44,0,1.93-.52.48,0,.77.23h0l.21,4.25.23,1,.48.49,1.32.39.6.66.43.95-.07.6-.65.81-.33.87.11.49.58.75,2.89,1.72,1.17.33,1.2-.16,2.45-1.07,1.27-.36,2.54-.32,1.7.07.65.19,2.38,1.5.38,2.73.93,1.49Z" />
            <path id="PS-BTH" class="cls-10"
                d="M231.87,400.5l-.94.32-1.5,0-.78-.25L225.39,399l-.81-.51L223,395.65l-.33-.95.06-1,.68-1.86-.13-1-.36-.55-2.65-2.16-2.37-1-1.62-.48-.6-.37-1.49-1.91-1.73-1.84-1.9-1.48-.38-.68,0-2.48-1.42-3.21L206.81,369l-.49-.94-1.6-1.88-.35-.14-.24.05-.35.52-.3,3.76-.31.65-.49.38-.76.31-.88,0-1.82-.32-2.07-.18-.8-.23-.79-.38-.52-.44-.45-.66-.26-.72.18-.52,1.47-.71.65-.82.2-.61,0-.57-.65-1-1.91-1.21-1.24-.51-.38,0-1.22.55-1,.19-1-.1-.55-.25-.23-.2-.32-.63L188,360l-.42-.75-1.12-.83-4-1.92h0l7.45-7.37,7.34-3,8.69-.22.24-.38h0l5.23,3.59.51.24,1.1.19,1.68-.13,3.49-1.36.88,0,1.49.22,2.86-.49.63-.22,1.87-1.28,1.91-.57,1.18.16,1.37.47,1.66,0,.85-.2,3-1.27.7-.17.41,0,2.27.68,3,.26,1.56.36,1.38,0,1.73-.48.74.07,2.18.67.76.37.77.57,6.89,7h0L254.52,366l-3.64,12.49-.35,9-.12,8.34L239,395.63l-2.72,1Z" />
            <path id="PS-HBN" class="cls-11"
                d="M163.13,372.74l1.57-2.62,5.26-5.68,2.86-2.5,8.08-3.88,1.56-1.54h0l4,1.92,1.12.83.42.75.34,2.45.32.63.23.2.55.25,1,.1,1-.19,1.22-.55.38,0,1.24.51,1.91,1.21.65,1,0,.57-.2.61-.65.82-1.47.71-.18.52.26.72.45.66.52.44.79.38.8.23,2.07.18,1.82.32.88,0,.76-.31.49-.38.31-.65.3-3.76.35-.52.24-.05.35.14,1.6,1.88.49.94,1.91,5.71,1.42,3.21,0,2.48.38.68,1.9,1.48,1.73,1.84,1.49,1.91.6.37,1.62.48,2.37,1,2.65,2.16.36.55.13,1-.68,1.86-.06,1,.33.95,1.59,2.84.81.51,3.26,1.55.78.25,1.5,0,.94-.32h0L230.21,402l-5.73,4.18-5.58,2.48-4.29,4.83-5,5.15-2.53,1.52-4.14.78-3.23.28-3.73.64-2.39-.55-3.64,1.89-9.94-.64-7-.59-7.22,1.8-7.83,1-4.28-1.15-2.77-2.29-1.93-3.13-.47-4,3.35-6.73,3.82-4.93,3.45-6.55.64-3.5-.75-8.2,1.52-7.57Z" />
            <path id="PS-NGZ" class="cls-12"
                d="M74.18,383.66l4.32-6.24,1.86-3,7.49,7,2.35,3.47,0,3.87-1.53,2.71-5,1.19h0l-1.84-1.07-1.51-1.05-.74-.24-1.06-.14-.46-.29-.46-.77L77.48,388l-.23-.64-.53-.75-2-2.15Z" />
            <path id="PS-GZA" class="cls-13"
                d="M67.75,408.07l-.12-2.48L66.94,403l-.57-.88-.57-.28-2.55-.74-3-.13h0l1-1.4L62.54,398l3.79-4.19,7.85-10.13h0l.56.82,2,2.15.53.75.23.64.15,1.05.46.77.46.29,1.06.14.74.24,1.51,1.05,1.84,1.07h0Z" />
            <path id="PS-DEB" class="cls-14"
                d="M60,419l-1.56-.25-.46-.28L56.46,417l-.37-.24-5.6-2-1.05-.61-.64-.71h0L50.38,412l3.21-3.35,2.54-2.79L60.2,401h0l3,.13,2.55.74.57.28.57.88.69,2.61.12,2.48h0l-1.38,1.33-5.74,7.38Z" />
            <path id="PS-KYS" class="cls-15"
                d="M51.32,442l-1-2.37-.94-4.27-.25-.66-.31-.38-.6-.41-3.41-1.67-2.62-1.53L37.1,427l-1.18-.54h0l5.13-5,5.89-6.3,1.86-1.68h0l.64.71,1.05.61,5.6,2,.37.24,1.47,1.47.46.28L60,419h0l-.83,2.78.43,5.79,0,5.41-1.9,3.49Z" />
            <path id="PS-RFH" class="cls-16"
                d="M42.26,449l-6.72-22.22.38-.29h0l1.18.54,5.06,3.74,2.62,1.53,3.41,1.67.6.41.31.38.25.66.94,4.27,1,2.37h0L50,443.13Z" />
            <path id="IL" class="cls-17"
                d="M326.45,68l-.32.86.39,1.11,2,2.21.19.89-.24.5-.92.54-1.94.23-3.44-.91-.73.59L321,75.13l.87,3.58-.5,6.44.9,2.92,1.48,13.61,3,4.16.59,1.43,0,1.12-.79,2.18-.66,1.14-3.12,5.45-2.52,5.56-2.8,3-4.23,7.59-5.38,6.25-.16-.68-1.09-.62-3.76,1.55L301,140l-.86.73-.66,1.53-.71,2.77-3.93.53-2.48,2.51L289.66,150l-1.72.52-1.23.8-4.27.3L280.38,153l-4.86,2.12-1.12,1.28.32,2.87-2,.77.08,1.25-.42.49-1.52.42-2.49,1.89-.23,2.09.54.63-.25,3,.4.94,1.28.7.34,1.27-.82,1.9-.12,1.92,1.77,3.67-.17.43-1.73,0-.3,1.92-.79,0-1-.66-.37.2.11,1.21,1.16,1.88-.38.65-1.74.37-.92,1.3.81.61,1.11,0,1.1,2.51,1.29.52.33.55-.21,1-2.13,3.83-.15,1,.27.92,1.42.69.35.69-.43,1-.84,0-.59.53.43,2.69-2,.63.5,4.59-.3.76-1.29.38-.17.33,1.64,2.78-1.4-.13-4-1.15-5.08-2.37-2.17-.66-3.92-.17-2.58.75-2.18-.35-1.14-1,0-1-1.23-1.58-1-2.94.21-4.06-.54-4.36-2.8-4.74-2.79-2.08-1.46-.36-3.32-.05-8.43,1.55h-2l-1.37-.36-2.71-1.34-2.65-1.94L210.72,182l-2.39-1.3-1.67.26-.91.46-1,1.09-2.21,2.5-.6,1.24-2.06,2-3.4,2.47-4.29,2.19-6.93,2.62-1.31,1-1.6,3-.76,2.83-.8,5.21-1.5,4.16-.35,2.53-.36,2.62L177.41,218l-4.48,2-1.15,1.45L170,224.9l-.19,5.47.81,5.81-.57,1.51-1.46,1-2.37,3.43-3.12,7.05-.29,2.37.08,2.35,2.35,3.52.93,1.95,1.31,5.78.21,2.6-.55,2.12-1.4,2.65-.19,1.62.54,1.34,1.8,1.92,2,3.77.57,2.33-.4,3-1.39,3,0,1.36L169,292l-.76.62.76,2-2.36,5.05.42,4.58,2.64,3.56,3.94,3.14.83,3.24-1.53,4.72-8.6,1.54-.16.23-2,2.91,1.44,5.41L167,330.4l4.76.69,4.39-1.58,3.24-3.52,3.28-1.94,3.79,3.51,3.47,1.66,7.44,3,8,0,3.14,3.28-.52,7.3-1.8,2.81-.24.37-8.69.23-7.35,3-9,8.91L172.77,362l-2.86,2.5-5.26,5.68-1.57,2.62-2.67,4-1.52,7.56.75,8.2L159,396l-3.45,6.55-3.82,4.93-3.35,6.73.47,4,1.94,3.13,2.76,2.29,4.28,1.14,7.82-1,7.23-1.8,7,.59,9.94.64,3.64-1.89,2.39.55,3.73-.64,3.22-.27,4.15-.78,2.53-1.52,5-5.15,4.29-4.83,5.58-2.48,5.72-4.18,6.1-5.38,2.72-1,11.39.16,0,3.49-.07,10.28-.61,4.05-2.83,8.09-6.52,11.72-2,4-1.85,3.26-.88,4,2,4.28,7.69,10.35,1.37,2.94.86,4.18.17,3.12-1.16,5.14-1.07,3.67-6.59,10.17-.7,4.08.4,3.26,1.41,3.9V504l-3,2.74L230.45,511l-4.61,10.16-.05,3.62.86,3.3-.88,4-3.3,1.19-2.57,3.11-1.52,4.16v8.14l-2.44,5.67-4.23,7.72-.92,4.43-2.56,2.37-5.08,9.82-.41,3.29-3.9,18.07-1.19,3.56L195.26,607l-.69,2.69,6,11.21.91,3.1-.55,2.37-3.83,4.24-1.1,3.42.59,4-3.29,7.29,5.4,23.89-13.34,19.14-3.59,14.26.54,15.48-5.08,10.16-.77,3.72.5,2.95-.5,4-2.94,12.24v6.66l.45,4.17.05,3.85-2.26,2.76-3.08,2.27-2.62,3-1.85,3.71-1.67,4.72-.34-.11-.72,0-.43-.44h-.38l-.14.55-.19.06-.1.55-.24.27-.05.27h-.43l-.1.27L159,784l-.19.38-.14.82-.43.71h-.38V786l-.53.6-.62.38-.14.55-.67.66V789l-.43.27-.62.88-.34.27V791l-.77.88-.66.32-4.35-5-2.27-4.29-.82-3.3-.69-5.74,1.62-5.39.81-5.39-.78-3.71-3.09-5.38.12-9.51L126,694.91l.36-3-5.59-15.43-14.84-42-3.51-13.2-12-7.87-.44-6.11,3.56-10L86,588.49l.5-10.87-5-20.76L66.32,525l-9.84-28.82L42.26,449,50,443.13l7.67-6.63,1.9-3.49,0-5.41-.43-5.79,1.51-5,5.75-7.39,17.29-16.76,5-1.19,1.53-2.72,0-3.87-2.35-3.47-7.5-7,4.17-6.77.72-.45.33-.5,0-.11-.29-.06,0-.5-.14-.06v-.17l.58-.67v.22l-.43.5.48.11.1.17L86,366l2.63-4.37.34-1.18.62-.45,1-1.23.38-.78,0-.28.53-.67.29-.73.24-.17.1.22h.19l2.92-5.21.53-.73L97,347.76l.77-.95.38-1.12,1.92-3.31,1.72-3.7.86-1.46.86-2.07.29-.5.14-.06,0-.17.48-.9.48-1.35.62-1.12.72-1.68-.53-.56-.29-.95,0-.79.48-1.18h.14v.39l-.19.11-.29.67V328l.62,1.07h.38l.1-.28-.48-.28v-.17l.19-.11-.05-.56.14-.17.05-.45v-.17l-.19-.11v-.22h.43l.19.22h1.1l.1-.28.38-.39.1-.22-.24-.11,0-.28,0-1.46.14-.11,0,.22h.14V324l.38-.22,1.42-3.6,1.11-2.38,1.58-4,.19-.84.53-1.12v-.22l.19-.22.24-1.23.29-.56,0-.67.19-.06,0-.22.14-.06v-.39l.1-.17h.14v-.28h.1l.38-.67.24-.11,0-.34,1.44-2.13,1.24-3,1.2-3.15,2.11-7.28.38-1.49.38-.9.14-1.29.38-.51-.24-.17.33-1.12.29-.45v-.34l.19-.45.24-.28.14-1.24.58-.45v-.51l-.19-.17.53-.51h.33l.43-.34.53-.84.34-1.07.24-.34,0-.51-.1-.11.29-.11-.19-.28.14-.17-.1-.06.1-.39.72-1.69.05-.51.2-.11.13-.34-.24-.68v-.56l.38-.28.19.06.29-.9.43-.84-.24-.45.05-.34h.14l.1.28h.19l.53-1.63.33-1.69.43-.56.14-.39,0-.23.14-.11.48-1.86v-.84l.57-1.46-.1-.62.53-.28,0-.45-.34-.23.1-1.29.19-.17.29.11.1-.17.67-2.25.48-2.53.34-.58.29-.78v-.28l-.14-.17.05-.28.53-1.24.24-.23,0-.45.43-.79,0-.68.53-.79.1-.79.24-.56-.1-.56.38-.39v-.9l.34-1.46.29-.45.48-1.3,0-.68.19-.28.24-.79-.05-.17L139,238l0-.85h-.14V237l.34-.56.1-1.3.53-1,.1-.56.43-1-.05-.68.19.11.14-.06-.1-1,.19-1,.19-.17-.05-.39.72-3.21V226l-.24-.17,0-.28.62-.34,0-.17.33-1.92.19-.51v-.68l.29-.56.81-3.72V217l.24-1.24h-.29v-.11l.53-.51.14-.34.1-.79-.1-.68.29-1.13-.33-.23.24-.51.19-.11.38-1,.14-.06.14-.84-.1-.17.19-.45.34-.17.14-.45V208h-.48l.29-.4v-.28l.24-.45.38-.17-.05-.17.1-.06.72-3.5.1-1.64.53-1.58.29-1.52-.38-1H145.5V197l1.87-.06.14-.11.1-.45.19.17,0,.4h.57l.05-.11h-.33l-.14-.17v-.23l.19-.06.1-.39v-.23l-.19-.06v-.17l.19-.06.05.17h.14l.24-.17-.1-.17,0-.62.53-.9-.1-.28-.29.11-.05-.79.19-.11v-.45l.19-.34-.1-.23.34-.4v-.4l-.19-.17.1-.68.38-.28.05-.79.48-.62-.48-.06-.05-.28h.24l.29-.62.38-1.69.19-.28,0-.73.24-.45-.05-.74-.29-.06-.14-.17v-.56l.24-.74.38-.4.34.06.29-.56-.05-.23-.33-.06v-.34l-.24-.17.57-1.07-.14-.28.05-.45.29-.34.38-1.41.19.11.1-.23-.1-.4.38-.74-.1-.45-.34-.34v-.34l.34-.34.14-.79-.19-.11v-.28l.29-.85.29-.4-.14-.23.14-.4-.05-1,.19-.4V169l-.14-.11.19-.57.19-1.81.24-.06.24-.57.1-1.64.29-1.25.33-.57-.29-.17.24-1.25,0-.91.43-.4,0-.23.05-1.81.29-1.87,0-1.7.19-.4v-.17l-.19-.17v-.28l.1-.11-.05-.4.29-.23,0-.34-.24-.17v-.45l.29-.85v-.45l.53-.62v-.28l.38-.4.67.06.48-.62.34-.74.19-.85-.14-.51.33-.4.19-2.1.38-.91.34-4,.19-.74v-1.76l.1-.79.19-.45.24-2.89-.19-.91h.24l.05-.11.14-1.36,0-.68-.24-.45h.14l.1-.17.14.17.14-.06v-.17l-.14-.06.14-.45-.19-.17-.14-.51v-1.81l.24-.28-.19-.34.29-.34.43.11,1-1,.53-.11.62.06.86-.45.19-.34.14-.11.14.06.14-.23h.43l.62.28.43.79h.43l.24.23.86.34.53.06v.17l.24.28,1.29.06,1.25-.34v.17l-.58.23-.1-.11-.38.28H170l-1.2-.11-.72-.23-.86-.62-.38.11.24.06.1.23.19.06,0,.23,1,.51.14.28.19.06.29.34.1.4.19-.11v-.57h.19l.09.51h.24l.1-.34-.24-.23v-.23l.05-.11.29.06.38.57.14,1.08.33.11.19.45h.62l.24-.17.53-.06-.14-.4.19-.06.77.51.14.91,1-.28.05-.17-.14-.23-.48-.06-.1-.57-.38.06-.29-.17.77-.23,1.53-1,.33-.06.19-.4.29-.06v-.23l.33-.17v-.28l.24-.23.29-.62.67-.62,1-1.48,1.72-4,.29-.11-.1-.4.43-1.42.19-.11,0-.23.38-1.08.24-.17-.1-.23.48-1.65-.05-.23.43-2.21,0-2.5-.48-1-.33-.5-.38-.28-.57-.06-.19.17v.45l-.34-.11-.43.06v-.45l.77-2,.1-1.48.67-2.78,0-1.65.14-.34-.05-.68.1-.06v-.57l.19-.68,0-.28.43-1.08V93l.29-.11V91.39l.19-.17.14-.85.67-1.25-.05-.8-.14-.28.14-.11v-.74l.24-.45-.05-.57.29-.63,0-.17.24-.11-.1-.57.33-.68.14-.85.24-.45.1-.85.48-.85-.19-.11v-.35l.48-.4-.1-.11.14-.46-.1-.28.33-.51-.1-.57h.14l-.05-.63.24-.17.05-1.31.19-.4.1-1.88.19-.34v-.63l-.14-.17V70.75l7.69-.11,5.43-.46,6.1,1.06.6-.26,1-1.07,2-.65,6.38-.21,6.64-.93,3.42.8,2.9,5.52,1.62,1.86,2.6,1.54,1,.29,4.38-2,4.73-.37,1.24-.66,2.94-2.84.85-1.16,1.42-1,.75-.08,3,.73,2.92-1.1.4-.49.23-2.59.39-.86,3.28-1.39.86-2,.35-4.48,1.08-5,1.1-1.92.85-2.29-.14-2.49-.62-2.8.08-1.6,1.47-3.35,1-.84L268,35.39l1.65-3.64.41-.44,1.21,1,4.08,5.82.67.21.64-.61.65-1.62.81-1.06,5-2.35,5.28-3.16,1.77-1.71,2.56-4.09,1.44-1.3,1.07-.42,4.32.36,2.62-.45,3.46-1.44,3.21-2.61,1-1.38.53-1.62.81-5.23,1.47-2.36,2.62-1.9L324.87.15l.89.69L326,2.32l-.62,2.61-1.81,3-3.42,3.91-1.47,3.82-.53,3.72.83,8.33-.26,1.4-2,3.39L318,34l2.55,2.17,1.11,1.56.58,1,1.15,4.17.22,2.41-.34,1.63-.65,1.67-1.54,1.67-.55,1.1.33,2.22,1.43.52,2.36.25L326,55l3.63,5.26-.41,5.37L326.45,68Z" />
            <path class="cls-18"
                d="M155.33,685.45h8.82a7.35,7.35,0,0,1,7.35,7.35v0a1.08,1.08,0,0,1-1.08,1.08H149.06a1.08,1.08,0,0,1-1.08-1.08v0a7.35,7.35,0,0,1,7.35-7.35Z" />
            <path class="cls-19"
                d="M159.74,620.74h0a2.35,2.35,0,0,1,2.35,2.35v62.36a0,0,0,0,1,0,0h-4.71a0,0,0,0,1,0,0V623.1a2.35,2.35,0,0,1,2.35-2.35Z" />
            <path class="cls-20"
                d="M205.36,626.59v9.33h-31l-12.26-9.5L162,642.1V625.57a29.26,29.26,0,0,1,3.51,0c5.55.27,7.46,2.06,11.08,2.46,5.28.6,4.93-2.78,11.2-2.81,4.81,0,6.69,1.94,13.29,1.79A32.34,32.34,0,0,0,205.36,626.59Z" />
            <path class="cls-21"
                d="M205.36,649.15v9.94a34.14,34.14,0,0,1-4.31.38c-6.6.14-8.48-1.82-13.29-1.8-6.27,0-5.92,3.41-11.2,2.81-3.62-.4-5.53-2.18-11.08-2.46a26.94,26.94,0,0,0-3.51.05v0l12.53-8.9Z" />
            <polygon class="cls-22"
                points="183.34 642.87 174.5 649.15 161.97 658.05 161.97 642.1 162.1 626.42 174.36 635.92 183.34 642.87" />
            <polygon class="cls-23"
                points="205.36 635.92 205.36 649.15 174.5 649.15 183.34 642.87 174.36 635.92 205.36 635.92" />
            <polygon class="cls-24"
                points="183.34 642.87 174.5 649.15 162.1 649.15 162.1 635.92 174.36 635.92 183.34 642.87" />
            <polygon class="cls-25"
                points="183.34 642.87 174.5 649.15 161.97 658.05 161.84 658.14 161.97 642.1 162.1 626.42 174.36 635.92 183.34 642.87" />
            <path class="cls-26"
                d="M60.87,418.78h8.82A7.35,7.35,0,0,1,77,426.14v0A1.08,1.08,0,0,1,76,427.21H54.59a1.08,1.08,0,0,1-1.08-1.08v0a7.35,7.35,0,0,1,7.35-7.35Z" />
            <path class="cls-27"
                d="M65.28,354.07h0a2.35,2.35,0,0,1,2.35,2.35v62.36a0,0,0,0,1,0,0H62.92a0,0,0,0,1,0,0V356.43A2.35,2.35,0,0,1,65.28,354.07Z" />
            <path class="cls-28"
                d="M110.89,359.92v9.33h-31l-12.26-9.5-.12,15.68V358.91a28.65,28.65,0,0,1,3.5-.05c5.56.27,7.46,2.06,11.08,2.46,5.29.6,4.93-2.78,11.21-2.81,4.8,0,6.68,1.94,13.28,1.8A32,32,0,0,0,110.89,359.92Z" />
            <path class="cls-29"
                d="M110.89,382.48v9.94a32.34,32.34,0,0,1-4.31.38c-6.6.14-8.48-1.82-13.28-1.8-6.28,0-5.92,3.41-11.21,2.82-3.62-.41-5.52-2.19-11.08-2.47a28.65,28.65,0,0,0-3.5,0v0L80,382.48Z" />
            <polygon class="cls-30"
                points="88.87 376.2 80.03 382.48 67.5 391.38 67.5 375.43 67.63 359.75 79.89 369.25 88.87 376.2" />
            <polygon class="cls-31"
                points="110.89 369.25 110.89 382.48 80.03 382.48 88.87 376.2 79.89 369.25 110.89 369.25" />
            <polygon class="cls-32"
                points="88.87 376.2 80.03 382.48 67.63 382.48 67.63 369.25 79.89 369.25 88.87 376.2" />
            <polygon class="cls-33"
                points="88.87 376.2 80.03 382.48 67.5 391.38 67.38 391.47 67.5 375.43 67.63 359.75 79.89 369.25 88.87 376.2" />
            <path class="cls-34"
                d="M239.31,379.73h8.82a7.35,7.35,0,0,1,7.35,7.35v0a1.08,1.08,0,0,1-1.08,1.08H233a1.08,1.08,0,0,1-1.08-1.08v0A7.35,7.35,0,0,1,239.31,379.73Z" />
            <path class="cls-35"
                d="M243.72,315h0a2.35,2.35,0,0,1,2.35,2.35v62.36a0,0,0,0,1,0,0h-4.71a0,0,0,0,1,0,0V317.38a2.35,2.35,0,0,1,2.35-2.35Z" />
            <path class="cls-36"
                d="M289.34,320.87v9.33h-31l-12.27-9.5L246,336.38V319.86a28.77,28.77,0,0,1,3.51-.05c5.55.27,7.45,2.06,11.08,2.46,5.28.6,4.92-2.78,11.2-2.81,4.8,0,6.69,1.94,13.28,1.8A34,34,0,0,0,289.34,320.87Z" />
            <path class="cls-37"
                d="M289.34,343.43v9.94a32.52,32.52,0,0,1-4.32.38c-6.59.14-8.48-1.82-13.28-1.8-6.28,0-5.92,3.41-11.2,2.82-3.63-.41-5.53-2.19-11.08-2.47a28.77,28.77,0,0,0-3.51.05v0l12.53-8.9Z" />
            <polygon class="cls-38"
                points="267.31 337.15 258.48 343.43 245.95 352.33 245.95 336.38 246.07 320.7 258.34 330.2 267.31 337.15" />
            <polygon class="cls-39"
                points="289.34 330.2 289.34 343.43 258.48 343.43 267.31 337.15 258.34 330.2 289.34 330.2" />
            <polygon class="cls-40"
                points="267.31 337.15 258.48 343.43 246.07 343.43 246.07 330.2 258.34 330.2 267.31 337.15" />
            <polygon class="cls-41"
                points="267.31 337.15 258.48 343.43 245.95 352.33 245.82 352.42 245.95 336.38 246.07 320.7 258.34 330.2 267.31 337.15" />
            <path class="cls-42"
                d="M192.5,166.45h8.82a7.35,7.35,0,0,1,7.35,7.35v0a1.08,1.08,0,0,1-1.08,1.08H186.22a1.08,1.08,0,0,1-1.08-1.08v0a7.35,7.35,0,0,1,7.35-7.35Z" />
            <path class="cls-43"
                d="M196.91,101.74h0a2.35,2.35,0,0,1,2.35,2.35v62.36a0,0,0,0,1,0,0h-4.71a0,0,0,0,1,0,0V104.09A2.35,2.35,0,0,1,196.91,101.74Z" />
            <path class="cls-44"
                d="M242.53,107.59v9.32h-31l-12.26-9.49-.13,15.67V106.57a27.25,27.25,0,0,1,3.51,0c5.55.27,7.45,2,11.08,2.46,5.28.59,4.93-2.79,11.2-2.82,4.81,0,6.69,2,13.29,1.8A32.34,32.34,0,0,0,242.53,107.59Z" />
            <path class="cls-45"
                d="M242.53,130.14v9.94a32.34,32.34,0,0,1-4.31.38c-6.6.15-8.48-1.82-13.29-1.79-6.27,0-5.92,3.4-11.2,2.81-3.63-.4-5.53-2.19-11.08-2.46a25.22,25.22,0,0,0-3.51,0v0l12.53-8.9Z" />
            <polygon class="cls-46"
                points="220.51 123.86 211.67 130.14 199.14 139.04 199.14 123.09 199.27 107.42 211.53 116.91 220.51 123.86" />
            <polygon class="cls-47"
                points="242.53 116.91 242.53 130.14 211.67 130.14 220.51 123.86 211.53 116.91 242.53 116.91" />
            <polygon class="cls-48"
                points="220.51 123.86 211.67 130.14 199.27 130.14 199.27 116.91 211.53 116.91 220.51 123.86" />
            <polygon class="cls-49"
                points="220.51 123.86 211.67 130.14 199.14 139.04 199.01 139.13 199.14 123.09 199.27 107.42 211.53 116.91 220.51 123.86" />
            <path class="cls-50"
                d="M148.34,497.9h8.82a7.35,7.35,0,0,1,7.35,7.35v0a1.08,1.08,0,0,1-1.08,1.08H142.06a1.08,1.08,0,0,1-1.08-1.08v0A7.35,7.35,0,0,1,148.34,497.9Z" />
            <path class="cls-51"
                d="M152.75,433.19h0a2.35,2.35,0,0,1,2.35,2.35V497.9a0,0,0,0,1,0,0h-4.71a0,0,0,0,1,0,0V435.55A2.35,2.35,0,0,1,152.75,433.19Z" />
            <path class="cls-52"
                d="M198.36,439v9.33h-31l-12.26-9.5L155,454.55V438a26.74,26.74,0,0,1,3.5,0c5.56.27,7.46,2.06,11.08,2.46,5.29.6,4.93-2.78,11.21-2.81,4.8,0,6.68,1.94,13.28,1.8A33.77,33.77,0,0,0,198.36,439Z" />
            <path class="cls-53"
                d="M198.36,461.6v9.94a32.34,32.34,0,0,1-4.31.38c-6.6.14-8.48-1.82-13.28-1.8-6.28,0-5.92,3.41-11.21,2.82-3.62-.41-5.52-2.19-11.08-2.47a28.65,28.65,0,0,0-3.5,0v0l12.52-8.9Z" />
            <polygon class="cls-54"
                points="176.34 455.32 167.5 461.6 154.97 470.5 154.97 454.55 155.1 438.87 167.36 448.37 176.34 455.32" />
            <polygon class="cls-55"
                points="198.37 448.37 198.37 461.6 167.5 461.6 176.34 455.32 167.36 448.37 198.37 448.37" />
            <polygon class="cls-56"
                points="176.34 455.32 167.5 461.6 155.1 461.6 155.1 448.37 167.36 448.37 176.34 455.32" />
            <polygon class="cls-57"
                points="176.34 455.32 167.5 461.6 154.97 470.5 154.85 470.59 154.97 454.55 155.1 438.87 167.36 448.37 176.34 455.32" />
            <path class="cls-58"
                d="M2.29,837.31A2.25,2.25,0,0,1,0,835V805.23a2.19,2.19,0,0,1,.66-1.65,2.23,2.23,0,0,1,1.63-.64h8.8a11.69,11.69,0,0,1,5.85,1.45,10.28,10.28,0,0,1,4,4,12,12,0,0,1,1.43,5.92,11.37,11.37,0,0,1-1.43,5.72,10.11,10.11,0,0,1-4,3.91,11.89,11.89,0,0,1-5.85,1.41H4.58V835a2.29,2.29,0,0,1-.64,1.63A2.21,2.21,0,0,1,2.29,837.31Zm2.29-16.15h6.51a7.12,7.12,0,0,0,3.56-.88,6.46,6.46,0,0,0,2.42-2.42,6.94,6.94,0,0,0,.88-3.52,7.58,7.58,0,0,0-.88-3.72,6.61,6.61,0,0,0-2.42-2.53,6.75,6.75,0,0,0-3.56-.92H4.58Z" />
            <path class="cls-59"
                d="M39.16,837.31a2.11,2.11,0,0,1-1.89-1.06,2.26,2.26,0,0,1-.14-2.24L49.5,804.48a2.23,2.23,0,0,1,2.16-1.54,2.13,2.13,0,0,1,2.15,1.54l12.41,29.61a2.34,2.34,0,0,1-.15,2.22,2.13,2.13,0,0,1-1.92,1,2.29,2.29,0,0,1-1.25-.38,2.07,2.07,0,0,1-.86-1L51.13,808.79h1.23L41.27,835.9a2.18,2.18,0,0,1-.9,1.05A2.32,2.32,0,0,1,39.16,837.31Zm2.33-7.57L43.25,826H60.5l1.76,3.79Z" />
            <path class="cls-60"
                d="M88.13,837.31a2.15,2.15,0,0,1-1.61-.66,2.28,2.28,0,0,1-.63-1.63V805.23a2.21,2.21,0,0,1,.66-1.63,2.15,2.15,0,0,1,1.58-.66,2.25,2.25,0,0,1,2.29,2.29v27.5h15.93a2.25,2.25,0,0,1,2.28,2.29,2.23,2.23,0,0,1-.66,1.63,2.2,2.2,0,0,1-1.62.66Z" />
            <path class="cls-61"
                d="M130.85,837.31a2.2,2.2,0,0,1-1.62-.66,2.23,2.23,0,0,1-.66-1.63V805.23a2.19,2.19,0,0,1,.66-1.65,2.22,2.22,0,0,1,1.62-.64h19.89a2.23,2.23,0,0,1,1.63.6,2.06,2.06,0,0,1,.62,1.56,2,2,0,0,1-.62,1.49,2.26,2.26,0,0,1-1.63.58h-17.6v10.69h12.63a2.28,2.28,0,0,1,1.63.59,2.2,2.2,0,0,1,0,3,2.28,2.28,0,0,1-1.63.59H133.14v11h17.6a2.3,2.3,0,0,1,1.63.57,2,2,0,0,1,.62,1.5,2.09,2.09,0,0,1-.62,1.56,2.23,2.23,0,0,1-1.63.6Z" />
            <path class="cls-62"
                d="M184.71,837.75a16.26,16.26,0,0,1-5.37-.89,13.68,13.68,0,0,1-4.44-2.46,9.58,9.58,0,0,1-2.77-3.65,1.73,1.73,0,0,1,0-1.72,2.23,2.23,0,0,1,1.56-1,2.16,2.16,0,0,1,1.56.24,2.71,2.71,0,0,1,1.17,1.26,5.61,5.61,0,0,0,1.74,2,9.79,9.79,0,0,0,2.92,1.5,11.42,11.42,0,0,0,3.61.57,11.07,11.07,0,0,0,3.89-.66,7.07,7.07,0,0,0,2.89-1.91,4.57,4.57,0,0,0,1.1-3.11,5.8,5.8,0,0,0-1.83-4.18q-1.83-1.85-6-2.28a15.16,15.16,0,0,1-8.58-3.22,8.41,8.41,0,0,1-3.12-6.64,7.59,7.59,0,0,1,1.63-4.93,10.13,10.13,0,0,1,4.42-3.08,17.59,17.59,0,0,1,6.23-1.05,13.29,13.29,0,0,1,4.68.74,11.11,11.11,0,0,1,3.5,2.07,13.66,13.66,0,0,1,2.6,3.12,2.72,2.72,0,0,1,.5,1.83,1.79,1.79,0,0,1-.86,1.34,2,2,0,0,1-1.8.22,2.42,2.42,0,0,1-1.45-1.14,7.85,7.85,0,0,0-1.72-2.16,7.5,7.5,0,0,0-2.37-1.38,9.18,9.18,0,0,0-3.22-.51,10.62,10.62,0,0,0-5.45,1.21,4.14,4.14,0,0,0-2.2,3.85,5.14,5.14,0,0,0,.68,2.53,5.44,5.44,0,0,0,2.51,2.09,16.19,16.19,0,0,0,5.26,1.23,13.86,13.86,0,0,1,8.16,3.19,9.05,9.05,0,0,1,2.92,7,8.79,8.79,0,0,1-1,4.36,9.55,9.55,0,0,1-2.77,3.1,12.26,12.26,0,0,1-4,1.87A17.19,17.19,0,0,1,184.71,837.75Z" />
            <path class="cls-63"
                d="M215.11,807.17a2.12,2.12,0,1,1,0-4.23h23.54a2.12,2.12,0,1,1,0,4.23Zm11.8,30.14a2.25,2.25,0,0,1-2.29-2.29V802.94h4.57V835a2.23,2.23,0,0,1-.66,1.63A2.2,2.2,0,0,1,226.91,837.31Z" />
            <path class="cls-64"
                d="M262.55,837.31a2.25,2.25,0,0,1-2.29-2.29V805.23a2.19,2.19,0,0,1,.66-1.65,2.27,2.27,0,0,1,3.91,1.65V835a2.28,2.28,0,0,1-.63,1.63A2.21,2.21,0,0,1,262.55,837.31Z" />
            <path class="cls-65"
                d="M290.31,837.31a2.15,2.15,0,0,1-1.61-.66,2.28,2.28,0,0,1-.63-1.63V805.23a2.25,2.25,0,0,1,.63-1.65,2.17,2.17,0,0,1,1.61-.64,2.21,2.21,0,0,1,1.76.84l19.18,25.52V805.23a2.19,2.19,0,0,1,.66-1.65,2.25,2.25,0,0,1,1.63-.64,2.14,2.14,0,0,1,1.63.64,2.28,2.28,0,0,1,.62,1.65V835a2.32,2.32,0,0,1-.62,1.63,2.12,2.12,0,0,1-1.63.66,2.7,2.7,0,0,1-1-.2,1.88,1.88,0,0,1-.81-.6L292.6,811v24a2.29,2.29,0,0,1-.64,1.63A2.21,2.21,0,0,1,290.31,837.31Z" />
            <path class="cls-66"
                d="M341.3,837.31a2.2,2.2,0,0,1-1.62-.66A2.23,2.23,0,0,1,339,835V805.23a2.19,2.19,0,0,1,.66-1.65,2.22,2.22,0,0,1,1.62-.64h19.89a2.23,2.23,0,0,1,1.63.6,2.06,2.06,0,0,1,.62,1.56,2,2,0,0,1-.62,1.49,2.26,2.26,0,0,1-1.63.58h-17.6v10.69h12.63a2.28,2.28,0,0,1,1.63.59,2.2,2.2,0,0,1,0,3,2.28,2.28,0,0,1-1.63.59H343.59v11h17.6a2.3,2.3,0,0,1,1.63.57,2,2,0,0,1,.62,1.5,2.09,2.09,0,0,1-.62,1.56,2.23,2.23,0,0,1-1.63.6Z" />
        </g>
    </g>
</svg>